<?xml version="1.0" encoding="UTF-8" standalone="no"?>
<!-- Created with Inkscape (http://www.inkscape.org/) -->

<svg
   width="512mm"
   height="512mm"
   viewBox="0 0 512 512"
   version="1.1"
   id="svg1"
   inkscape:version="1.4.3 (0d15f75, 2025-12-25)"
   sodipodi:docname="FireIcon.svg"
   xmlns:inkscape="http://www.inkscape.org/namespaces/inkscape"
   xmlns:sodipodi="http://sodipodi.sourceforge.net/DTD/sodipodi-0.dtd"
   xmlns="http://www.w3.org/2000/svg"
   xmlns:svg="http://www.w3.org/2000/svg">
  <sodipodi:namedview
     id="namedview1"
     pagecolor="#000000"
     bordercolor="#000000"
     borderopacity="0.25"
     inkscape:showpageshadow="2"
     inkscape:pageopacity="0.0"
     inkscape:pagecheckerboard="0"
     inkscape:deskcolor="#333333"
     inkscape:document-units="mm"
     inkscape:zoom="0.5046682"
     inkscape:cx="650.92272"
     inkscape:cy="960.0367"
     inkscape:window-width="2560"
     inkscape:window-height="1351"
     inkscape:window-x="-9"
     inkscape:window-y="-9"
     inkscape:window-maximized="1"
     inkscape:current-layer="layer1" />
  <defs
     id="defs1">
    <inkscape:path-effect
       effect="bspline"
       id="path-effect5"
       is_visible="true"
       lpeversion="1.3"
       weight="33.333333"
       steps="2"
       helper_size="0"
       apply_no_weight="true"
       apply_with_weight="true"
       only_selected="false"
       uniform="false" />
  </defs>
  <g
     inkscape:label="FireIcon"
     inkscape:groupmode="layer"
     id="layer1">
    <path
       style="fill:none;stroke:#ffffff;stroke-width:13.2292;stroke-dasharray:none"
       d="m 241.1988,50 c 0,0 1.36241,108.30377 -46.13089,169.64698 -35.72645,46.14494 -74.26049,71.82748 -73.04046,147.85302 0.84746,52.80922 49.47671,93.01714 119.17135,94.5 69.69464,1.48289 134.08891,-64.46457 134,-132 -0.16489,-125.25779 -134,-280 -134,-280 z"
       id="path6"
       inkscape:label="FlamePath"
       sodipodi:nodetypes="cssssc" />
    <path
       style="fill:none;stroke:#ffffff;stroke-width:7.9375;stroke-dasharray:none"
       d="m 269.36009,200.30035 c 0,0 6.62942,55.95895 -43.75718,117.50654 -23.33566,28.50467 -43.19803,34.28154 -42.83771,67.50945 0.31076,28.65806 26.58046,52.29396 59.90332,53.32919 39.24877,1.21933 74.23706,-43.4102 74.39234,-76.10388 0.45427,-95.64347 -47.70077,-162.2413 -47.70077,-162.2413 z"
       id="path6-8"
       inkscape:label="FlamePath_2"
       sodipodi:nodetypes="cssssc" />
  </g>
</svg>
