<?xml version="1.0" encoding="UTF-8" standalone="no"?>
<!-- Created with Inkscape (http://www.inkscape.org/) -->

<svg
   width="512mm"
   height="512mm"
   viewBox="0 0 512 512"
   version="1.1"
   id="svg1"
   inkscape:version="1.4.3 (0d15f75, 2025-12-25)"
   sodipodi:docname="FireIcon.svg"
   xmlns:inkscape="http://www.inkscape.org/namespaces/inkscape"
   xmlns:sodipodi="http://sodipodi.sourceforge.net/DTD/sodipodi-0.dtd"
   xmlns="http://www.w3.org/2000/svg"
   xmlns:svg="http://www.w3.org/2000/svg">
  <sodipodi:namedview
     id="namedview1"
     pagecolor="#000000"
     bordercolor="#000000"
     borderopacity="0.25"
     inkscape:showpageshadow="2"
     inkscape:pageopacity="0.0"
     inkscape:pagecheckerboard="0"
     inkscape:deskcolor="#333333"
     inkscape:document-units="mm"
     inkscape:zoom="0.35685431"
     inkscape:cx="654.32865"
     inkscape:cy="970.98449"
     inkscape:window-width="2560"
     inkscape:window-height="1351"
     inkscape:window-x="-9"
     inkscape:window-y="-9"
     inkscape:window-maximized="1"
     inkscape:current-layer="layer1" />
  <defs
     id="defs1">
    <inkscape:path-effect
       effect="bspline"
       id="path-effect5"
       is_visible="true"
       lpeversion="1.3"
       weight="33.333333"
       steps="2"
       helper_size="0"
       apply_no_weight="true"
       apply_with_weight="true"
       only_selected="false"
       uniform="false" />
  </defs>
  <g
     inkscape:label="FireIcon"
     inkscape:groupmode="layer"
     id="layer1">
    <path
       style="fill:none;stroke:#ffffff;stroke-width:13.2292;stroke-dasharray:none"
       d="m 256,50 c 0,0 -11.00103,98.66515 28.33651,170.38841 28.06373,51.16798 91.31344,95.55332 90.83484,147.11159 C 374.6811,420.31374 325.69464,460.51714 256,462 186.30536,463.48289 121.91109,397.53543 122,330 122.16489,204.74221 256,50 256,50 Z"
       id="path6"
       inkscape:label="FlamePath"
       sodipodi:nodetypes="cssssc" />
    <path
       style="fill:none;stroke:#ffffff;stroke-width:13.2292;stroke-linecap:butt"
       d="m 292.86578,235.77549 c 0,0 24.83785,-9.72481 48.1931,-61.53888 17.85558,-39.61296 -6.67289,-102.317671 -6.67289,-102.317671 0,0 64.92141,40.922941 53.38314,132.716391 -9.69133,77.09999 -37.81306,102.31766 -37.81306,102.31766"
       id="path1"
       inkscape:label="FlamePath_2"
       sodipodi:nodetypes="cscsc" />
  </g>
</svg>
